<svg id="Logo" xmlns="http://www.w3.org/2000/svg" viewBox="0 0 458.988 220.963"><path d="M368.8,126.962,396,95.976H364l-11.314,12.567L341,95.976H279v-9h29v-25H229v40l-.338-.44c-5-5.806-11.355-7.56-18.662-7.56-14.915,0-25.982,9.963-29.886,23.376-4.5-14.715-15.9-23.376-33.114-23.376-13.914,0-25.294,5.789-31,16v-13H88v-13h31v-22H62v97H88v-41l25.047-.023A33.269,33.269,0,0,0,112,126.976c0,20.12,15.38,35,35,35,16.517,0,27.194-7.886,33-22H158c-3,4.2-5.113,5.4-11.119,5.4-6.907,0-13.013-6.206-13.013-13.413h45.045c1.9,16.016,13.97,30.009,31.087,30.009a23.313,23.313,0,0,0,19-10h0v7H340l11.685-13.6L363,158.976h34ZM135,117.976c1.4-6.106,5.975-9.933,11.881-9.933,6.506,0,11.018,3.726,12.119,9.933Zm80.149,25.9c-8.308,0-13.514-7.808-13.514-15.916,0-8.709,4.5-17.017,13.514-17.017,9.309,0,13.113,8.308,13.113,17.017C228.162,136.271,224.258,143.879,215.149,143.879ZM303,153.976H254v-87h49v15H274v18h29l.037,15.074H274.008L274,137.976h29Zm-24-21v-13h29v-23l26.969,30.086L308,156.976v-24Zm72.585,5.5-13.513,15.616h-20.02l23.824-27.027L318,99.976h21l13.787,15.674L366,99.976h20l-23.5,26.986,23.624,27.127H365.1Z"/><path d="M432.22,145.982c0-6.343-4.531-10.874-10.648-10.874a10.876,10.876,0,0,0,0,21.748c6.23.113,10.648-4.531,10.648-10.874ZM418.627,153.8h-2.265V137.94h6c3.4,0,4.871,1.472,4.871,4.3a3.434,3.434,0,0,1-2.719,3.4v.113c1.36.227,1.813,1.36,2.152,3.625.227,1.359.453,3.851,1.02,4.418H424.97c-.679-1.473-.566-3.625-1.019-5.324a2.3,2.3,0,0,0-2.605-1.812h-2.719Zm3.059-9.288c2.265,0,2.831-1.246,2.831-2.266,0-1.246-.679-2.265-2.831-2.265h-2.832v4.531Zm-13.253,1.472a13.14,13.14,0,0,1,26.279,0c0,7.816-6.178,12.994-13.2,12.994a12.827,12.827,0,0,1-13.078-12.994Z"/></svg>