<?xml version="1.0" encoding="utf-8"?>
<!-- Generator: Adobe Illustrator 25.2.0, SVG Export Plug-In . SVG Version: 6.00 Build 0)  -->
<svg version="1.1" xmlns="http://www.w3.org/2000/svg" xmlns:xlink="http://www.w3.org/1999/xlink" x="0px" y="0px"
	 viewBox="0 0 468.072 271" style="enable-background:new 0 0 468.072 271;" xml:space="preserve">
<g id="Express">
	<g id="Express_1_">
		<path d="M253.942,208.976v-34.511h20.904l0.296,2.514h-18.34v13.163h17.009v2.515h-17.009v13.804h19.326l-0.296,2.514H253.942z"/>
		<path d="M280.48,208.976h-3.007l10.403-12.966l-9.762-12.029h3.205l8.184,10.255l8.233-10.255h3.057l-9.762,11.931l10.403,13.065
			h-3.254l-8.776-11.241L280.48,208.976z"/>
		<path d="M315.907,209.617c-2.301,0-4.289-0.526-5.966-1.578c-1.676-1.051-2.926-2.53-3.747-4.437v16.023h-2.712V183.98h2.465
			l0.099,5.965c0.789-2.071,2.078-3.689,3.87-4.856c1.791-1.166,3.919-1.75,6.385-1.75c2.235,0,4.207,0.576,5.916,1.726
			c1.709,1.151,3.057,2.712,4.043,4.684c0.986,1.972,1.479,4.207,1.479,6.705c0,2.531-0.51,4.791-1.528,6.779
			c-1.019,1.989-2.416,3.55-4.191,4.684S318.207,209.617,315.907,209.617z M306.046,196.453c0,2.137,0.402,4.018,1.208,5.645
			c0.805,1.627,1.923,2.893,3.353,3.796c1.43,0.904,3.081,1.356,4.955,1.356c1.873,0,3.517-0.451,4.93-1.356
			c1.413-0.904,2.506-2.169,3.279-3.796c0.772-1.627,1.159-3.508,1.159-5.645c0-2.103-0.387-3.96-1.159-5.571
			c-0.773-1.61-1.849-2.876-3.229-3.796c-1.38-0.92-3.007-1.381-4.881-1.381c-1.907,0-3.583,0.452-5.029,1.356
			c-1.447,0.904-2.572,2.162-3.377,3.772C306.448,192.444,306.046,194.317,306.046,196.453z"/>
		<path d="M332.656,196.207v12.769h-2.712V183.98h2.465l0.099,5.916c0.624-2.004,1.643-3.574,3.057-4.708
			c1.413-1.134,3.089-1.701,5.029-1.701c0.624,0,1.24,0.058,1.849,0.173c0.608,0.116,1.125,0.288,1.553,0.518l-0.247,2.613
			c-1.019-0.525-2.169-0.789-3.451-0.789c-2.366,0-4.232,0.921-5.596,2.761C333.338,190.603,332.656,193.085,332.656,196.207z"/>
		<path d="M363.693,204.933l0.641,2.268c-2.695,1.611-5.736,2.416-9.121,2.416c-2.433,0-4.577-0.535-6.434-1.602
			c-1.857-1.068-3.296-2.589-4.314-4.561c-1.019-1.972-1.528-4.289-1.528-6.951c0-2.596,0.501-4.881,1.504-6.853
			c1.002-1.972,2.399-3.517,4.191-4.634c1.791-1.117,3.837-1.676,6.138-1.676c3.451,0,6.105,1.126,7.962,3.377
			c1.857,2.252,2.786,5.415,2.786,9.49c0,0.132,0,0.28,0,0.444c0,0.165-0.017,0.329-0.049,0.493h-19.869
			c0.164,3.057,1.109,5.514,2.835,7.371c1.726,1.857,4.05,2.786,6.976,2.786c1.61,0,3.04-0.18,4.289-0.542
			C360.948,206.396,362.28,205.788,363.693,204.933z M354.671,185.558c-1.676,0-3.172,0.403-4.486,1.208
			c-1.315,0.806-2.366,1.915-3.155,3.328c-0.789,1.414-1.25,3.074-1.38,4.98h17.305C362.592,188.73,359.831,185.558,354.671,185.558
			z"/>
		<path d="M367.646,190.143c0-2.136,0.821-3.804,2.465-5.004c1.643-1.199,3.911-1.8,6.804-1.8c1.544,0,2.974,0.197,4.289,0.592
			c1.314,0.394,2.613,1.019,3.895,1.873l-0.69,2.219c-1.348-0.887-2.581-1.511-3.698-1.873c-1.118-0.361-2.4-0.542-3.845-0.542
			c-2.104,0-3.722,0.37-4.856,1.109c-1.134,0.74-1.701,1.816-1.701,3.229c0,1.348,0.468,2.4,1.405,3.155
			c0.937,0.757,2.621,1.397,5.053,1.923c3.188,0.69,5.472,1.627,6.853,2.81c1.381,1.183,2.071,2.794,2.071,4.832
			c0,2.137-0.855,3.829-2.564,5.078c-1.709,1.249-4.076,1.874-7.099,1.874c-3.484,0-6.557-0.904-9.22-2.712l0.69-2.268
			c1.511,0.986,2.9,1.685,4.166,2.095c1.265,0.411,2.703,0.616,4.314,0.616c2.202,0,3.911-0.394,5.127-1.183
			c1.216-0.789,1.824-1.889,1.824-3.303c0-1.511-0.518-2.67-1.553-3.476c-1.035-0.805-2.95-1.504-5.744-2.095
			c-2.761-0.558-4.782-1.413-6.064-2.564C368.287,193.578,367.646,192.049,367.646,190.143z"/>
		<path d="M388.053,190.143c0-2.136,0.821-3.804,2.465-5.004c1.643-1.199,3.911-1.8,6.804-1.8c1.544,0,2.974,0.197,4.289,0.592
			c1.314,0.394,2.613,1.019,3.895,1.873l-0.69,2.219c-1.348-0.887-2.581-1.511-3.698-1.873c-1.118-0.361-2.4-0.542-3.845-0.542
			c-2.104,0-3.722,0.37-4.856,1.109c-1.134,0.74-1.701,1.816-1.701,3.229c0,1.348,0.468,2.4,1.405,3.155
			c0.937,0.757,2.621,1.397,5.053,1.923c3.188,0.69,5.472,1.627,6.853,2.81c1.38,1.183,2.071,2.794,2.071,4.832
			c0,2.137-0.855,3.829-2.564,5.078c-1.709,1.249-4.076,1.874-7.099,1.874c-3.484,0-6.557-0.904-9.22-2.712l0.69-2.268
			c1.511,0.986,2.9,1.685,4.166,2.095c1.265,0.411,2.703,0.616,4.314,0.616c2.202,0,3.911-0.394,5.127-1.183
			c1.216-0.789,1.824-1.889,1.824-3.303c0-1.511-0.518-2.67-1.553-3.476c-1.035-0.805-2.95-1.504-5.744-2.095
			c-2.761-0.558-4.782-1.413-6.064-2.564C388.694,193.578,388.053,192.049,388.053,190.143z"/>
	</g>
</g>
<g id="Collective">
	<path id="FedEx_1_" d="M368.537,127.21l27.749-31.197H363.44l-11.12,12.721l-11.545-12.721l-61.848,0v-9.046h29.018V61.976h-78.989
		v39.491h-0.245c-5.004-5.749-11.253-7.749-18.503-7.749c-14.855,0-26.044,10.099-29.971,23.449
		c-4.481-14.709-16.033-23.723-33.161-23.723c-13.912,0-25.464,6.37-31.127,17.35V96.976h-28v-13h31v-22h-57v97h26l0-41.038h25.278
		c-0.751,2.961-1.155,6.166-1.155,9.51c0,20.128,15.377,34.252,35.004,34.252c16.44,0,27.293-7.695,33.062-21.719H158.13
		c-2.917,4.119-5.189,5.351-11.054,5.351c-6.887,0-12.827-6.008-12.827-13.132l0.006-0.229h44.695l0.024,0.229
		c1.94,15.989,14.394,29.776,31.486,29.776c7.372,0,14.124-3.626,18.251-9.75h0.245l0.002,6.75h110.705l11.625-13.153l11.731,13.153
		h33.929L368.537,127.21z M134.962,118.199c1.425-6.128,6.179-10.135,12.115-10.135c6.533,0,11.045,3.883,12.231,10.135
		C159.808,118.199,134.962,118.199,134.962,118.199z M215.247,143.782c-8.329,0-13.505-7.762-13.505-15.864
		c0-8.661,4.503-16.989,13.505-16.989c9.336,0,13.053,8.328,13.053,16.989C228.3,136.13,224.359,143.782,215.247,143.782z
		 M302.958,153.994h-49.012V66.963h49.012v15.034h-29.007v18.962h29.007v14.062h-29.007v22.936h29.007V153.994z M278.932,132.976
		v-13h28.941V97.363l26.664,29.971l-26.664,29.971v-24.329H278.932z M351.27,138.737l-13.479,15.264h-20.047l23.729-26.667
		l-23.467-26.375h20.907l13.481,14.847l12.966-14.847h20.236l-23.36,26.259l23.95,26.783h-21.305L351.27,138.737z M430.693,145.974
		c0-6.29-4.47-10.904-10.624-10.904c-6.15,0-10.624,4.614-10.624,10.904c0,6.29,4.474,10.9,10.624,10.9
		C426.223,156.875,430.693,152.264,430.693,145.974L430.693,145.974L430.693,145.974z M417.275,146.531v7.133h-2.307v-15.729h5.733
		c3.351,0,4.896,1.469,4.896,4.333c0,1.75-1.194,3.15-2.728,3.351v0.075c1.324,0.211,1.816,1.4,2.097,3.566
		c0.211,1.394,0.487,3.842,0.978,4.405h-2.723c-0.633-1.47-0.562-3.567-1.054-5.312c-0.416-1.329-1.114-1.821-2.653-1.821
		L417.275,146.531L417.275,146.531z M420.139,144.505c2.237,0,2.869-1.19,2.869-2.237c0-1.254-0.632-2.232-2.869-2.232h-2.864v4.47
		H420.139L420.139,144.505z M406.927,145.974c0-7.759,6.154-13.002,13.142-13.002c6.992,0,13.142,5.242,13.142,13.002
		c0,7.76-6.15,13.001-13.142,13.001C413.082,158.975,406.927,153.734,406.927,145.974L406.927,145.974z"/>
</g>
</svg>
