<?xml version="1.0" encoding="utf-8"?>
<!-- Generator: Adobe Illustrator 26.0.1, SVG Export Plug-In . SVG Version: 6.00 Build 0)  -->
<svg version="1.1" id="Icon" xmlns="http://www.w3.org/2000/svg" xmlns:xlink="http://www.w3.org/1999/xlink" x="0px" y="0px"
	 viewBox="0 0 128 128" enable-background="new 0 0 128 128" xml:space="preserve">
<linearGradient id="SVGID_1_" gradientUnits="userSpaceOnUse" x1="0" y1="63.75106" x2="128" y2="63.75106">
	<stop  offset="0" style="stop-color:#4D148C"/>
	<stop  offset="0.33" style="stop-color:#7D22C3"/>
	<stop  offset="1" style="stop-color:#FF6200"/>
</linearGradient>
<path fill="none" stroke="url(#SVGID_1_)" stroke-width="3" stroke-linecap="round" stroke-linejoin="round" d="M84,102.5
	l35-13.57861c0.77703-0.28731,1.30257-0.43946,2-0.42139c3.11503,0.08074,5.50243,3.15467,5.5,6
	c-0.00153,1.78916-0.85396,3.86865-2.89304,5l-47.57317,24.68993C74.46692,125.02435,72.73888,125.46606,71,125.5
	c-1.48948,0.02908-2.98692-0.24102-4.39783-0.81974C54.63999,119.77917,37.49518,114.54584,27,114.5
	c-2.8693-0.01254-5.27593,0.0827-6.83807,1.12671c-0.60771,0.41468-1.4187,0.39034-1.97379-0.1087L1.5,100.51523l0.02124-0.02362
	C10.90302,90.05592,24.32873,84.52295,38,84.5c4.21463-0.00707,8.31109,0.41634,12.5,1.5L78,92.5c3.5793,0.85625,6,4.5,6,8v0.5
	c0,4.21864-3.36478,6.54848-7,6.5c-0.67329-0.00898-1.82523-0.34544-2.5-0.5l-23-5 M90,47l-1,6l6,1.5 M69.5,2
	c0,0-11.90903,11.80904-12.0125,28C57.4351,38.20063,60.3429,47.75771,69.5,57c0,0,12.21326-10.99312,12.4875-27
	C82.12917,21.73139,79.33429,12.17068,69.5,2z M69.5,77V17 M62.5,28.5l7,6.5l6.5-6.5 M108,40c0,0-1.72166-0.48431-4.43752-0.5
	C95.96792,39.45612,81.52513,42.02588,78,61c0,0,1.90141,0.49134,5,0.5C90.75011,61.52165,104.50413,58.81664,108,40z M69.5,66.5
	l30-21 M40.5,53c0,0,3.28577,14.84219,19.5,14.5c0,0,2,0,3.5,0c0,0-3.23103-15.08154-18-15
	C43.96165,52.50849,42.2981,52.61457,40.5,53z M69.5,71.5l-21-14 M105,94c-8.07024-9.77888-21.83096-16.5-35.5-16.5
	c-9.1127,0-17.97755,2.25573-25,7"/>
</svg>
