<svg id="Icons" xmlns="http://www.w3.org/2000/svg" viewBox="0 0 128 128"><defs><style>.cls-1{fill:none;stroke:#4d148c;stroke-linecap:round;stroke-linejoin:round;stroke-width:3px;}.cls-2{fill:#4d148c;}</style></defs><line class="cls-1" x1="99.5" y1="83.5" x2="86.5" y2="83.5"/><path class="cls-1" d="M90.5,83.5v-48h11.1a4,4,0,0,1,3.644,2.35L115.5,60.5"/><path class="cls-1" d="M110.5,49.5h-10v11h15l8.915,4.863a4,4,0,0,1,2.085,3.512V79.5a4,4,0,0,1-4,4h-6"/><path class="cls-1" d="M90.5,75.5H3.5a2,2,0,0,1-2-2v-36a2,2,0,0,1,2-2h80a2,2,0,0,1,2,2v38"/><path class="cls-1" d="M12.447,75.5a8.5,8.5,0,1,1,0,17,8.5,8.5,0,0,1,0-17Z"/><circle class="cls-1" cx="32" cy="84" r="8.5"/><circle class="cls-1" cx="32" cy="84" r="3"/><circle class="cls-1" cx="78" cy="84" r="8.5"/><circle class="cls-1" cx="78" cy="84" r="3"/><circle class="cls-1" cx="108" cy="84" r="8.5"/><circle class="cls-1" cx="108" cy="84" r="3"/><circle class="cls-1" cx="12.5" cy="84" r="3"/><path class="cls-2" d="M59.9,53.827a1.33,1.33,0,1,0-1.33,1.365,1.306,1.306,0,0,0,1.33-1.365Zm-1.68.07v.893h-.289V52.821h.718c.419,0,.613.184.613.542a.411.411,0,0,1-.342.42v.009c.166.026.227.175.263.447a1.856,1.856,0,0,0,.122.551h-.341a6.575,6.575,0,0,1-.132-.665A.29.29,0,0,0,58.5,53.9Zm.359-.254c.28,0,.359-.149.359-.28,0-.157-.079-.279-.359-.279h-.359v.559Zm-1.654.184a1.645,1.645,0,1,1,1.645,1.628,1.611,1.611,0,0,1-1.645-1.628Z"/><path class="cls-2" d="M51.314,50.7l3.949-4.44H50.635L49.029,48.1l-1.667-1.838h-8.8V45.07h4.16V41.509l-11.206,0V47.1H31.48A3.238,3.238,0,0,0,28.86,46a4.419,4.419,0,0,0-4.244,3.33,4.572,4.572,0,0,0-4.7-3.368A4.77,4.77,0,0,0,15.583,48.3V46.5H11.511V44.554h4.443V41.507H7.881V55.172h3.63V49.428h3.622a5.4,5.4,0,0,0-.17,1.351A4.774,4.774,0,0,0,19.92,55.63a4.669,4.669,0,0,0,4.691-3.1H21.5a1.563,1.563,0,0,1-1.581.78,1.869,1.869,0,0,1-1.817-1.86h6.338A4.6,4.6,0,0,0,28.9,55.668a3.1,3.1,0,0,0,2.585-1.381h.036v.885h15.73l1.638-1.853,1.652,1.853h4.78l-4-4.475ZM18.2,49.469a1.753,1.753,0,0,1,1.716-1.435,1.666,1.666,0,0,1,1.732,1.435Zm11.369,3.623a2.074,2.074,0,0,1-1.912-2.246c0-1.227.638-2.406,1.912-2.406,1.323,0,1.848,1.179,1.848,2.406,0,1.163-.557,2.246-1.848,2.246ZM42.014,54.51h-7V42.171h7.041v2.236H37.9v2.512h4.115V49h-4.16v3.312h4.16v2.2Zm-3.407-2.951V49.752h4.161V46.493l3.756,4.222-3.756,4.222V51.559Zm10.274.762L46.948,54.51H44.124L47.5,50.715l-3.377-3.8h2.944l1.971,2.172,1.9-2.172h2.851L50.426,50.7l3.408,3.812h-3l-1.952-2.189Z"/></svg>